<?xml version="1.0" encoding="UTF-8" standalone="no"?>
<!-- Created with Inkscape (http://www.inkscape.org/) -->

<svg
   xmlns:dc="http://purl.org/dc/elements/1.1/"
   xmlns:cc="http://creativecommons.org/ns#"
   xmlns:rdf="http://www.w3.org/1999/02/22-rdf-syntax-ns#"
   xmlns:svg="http://www.w3.org/2000/svg"
   xmlns="http://www.w3.org/2000/svg"
   xmlns:sodipodi="http://sodipodi.sourceforge.net/DTD/sodipodi-0.dtd"
   xmlns:inkscape="http://www.inkscape.org/namespaces/inkscape"
   width="654.36835"
   height="853.13715"
   id="svg2"
   version="1.1"
   inkscape:version="0.48.5 r10040"
   sodipodi:docname="logo_traced.svg">
  <defs
     id="defs4" />
  <sodipodi:namedview
     id="base"
     pagecolor="#ffffff"
     bordercolor="#666666"
     borderopacity="1.0"
     inkscape:pageopacity="0.0"
     inkscape:pageshadow="2"
     inkscape:zoom="0.7"
     inkscape:cx="538.27732"
     inkscape:cy="413.59172"
     inkscape:document-units="px"
     inkscape:current-layer="layer1"
     showgrid="false"
     fit-margin-top="0"
     fit-margin-left="0"
     fit-margin-right="0"
     fit-margin-bottom="0"
     inkscape:window-width="1920"
     inkscape:window-height="1005"
     inkscape:window-x="1071"
     inkscape:window-y="831"
     inkscape:window-maximized="1" />
  <metadata
     id="metadata7">
    <rdf:RDF>
      <cc:Work
         rdf:about="">
        <dc:format>image/svg+xml</dc:format>
        <dc:type
           rdf:resource="http://purl.org/dc/dcmitype/StillImage" />
        <dc:title></dc:title>
      </cc:Work>
    </rdf:RDF>
  </metadata>
  <g
     inkscape:label="Layer 1"
     inkscape:groupmode="layer"
     id="layer1"
     transform="translate(38.857153,-74.6479)">
    <path
       style="fill:#000000"
       d="M 85,0 76.875,2.1875 C 38.45701,12.44871 10.99254,40.93364 1.875,80 1.6328534,81.037548 1.4334733,82.214801 1.25,84.15625 L 1,85 1,87.53125 C 0.04954699,104.75013 0,164.13123 0,427.5 l 0,339.5 2.6875,9.71875 c 3.19242,11.55646 8.92152,24.14657 15.34375,33.71875 5.53643,8.25192 19.99425,22.50631 28.09375,27.6875 10.87751,6.95826 24.54674,12.35905 36.21875,14.34375 C 84.91178,852.90535 196.35,853.202 330,853.125 L 573,853 l 7.5,-2.3125 c 35.66071,-11.00163 60.359,-36.6691 71.21875,-74 l 2.25,-7.6875 0.3125,-337 C 654.5121,185.02289 654.29819,92.87687 653.46875,87.03125 647.70987,46.44444 617.24975,12.28069 577.875,2.25 L 569,0 327,0 85,0 z m 136.46875,55.5 156.5625,0 c 171.11683,0 163.3862,-0.24303 178.46875,5.75 15.23127,6.05212 30.08596,17.9346 38.96875,31.15625 l 4.3125,6.375 -4.90625,10.0625 c -25.2406,51.89806 -57.94767,100.98616 -100.25,150.40625 -5.29361,6.18431 -10.09617,11.247 -10.65625,11.25 -0.56008,0.003 -3.26008,-1.87794 -6,-4.15625 C 405.82044,206.35048 327.81899,157.83864 244.15625,120.9375 233.62107,116.29075 224.325,112.12808 223.5,111.65625 c -1.26602,-0.72404 -1.55689,-5.17021 -1.78125,-28.5 L 221.46875,55.5 z m -109.71875,2 2.75,0 0,7.5 c 0,8.52912 -0.17464,8.65375 -9,6.03125 C 103.025,70.29579 98.4125,68.9541 95.25,68.0625 92.0875,67.17091 89.5,66.06066 89.5,65.59375 89.5,63.77759 106.69678,57.5199 111.75,57.5 z m -67.46875,84 c 0.05641,-0.0105 0.0962,0 0.15625,0 3.56144,0 47.27911,11.73169 63.8125,17.125 l 6.125,2 c 0.0376,0.2481 0.0885,0.60713 0.125,1 L 114.25,335.34375 114,510 l -11.5,3.8125 c -6.325,2.09216 -21.57206,6.70466 -33.875,10.25 -12.30294,3.54534 -23.21544,6.4375 -24.25,6.4375 -1.83492,0 -1.875,-4.76747 -1.875,-194.5 0,-186.04353 0.03266,-194.17432 1.78125,-194.5 z m 178.375,61 c 1.96504,0 46.30081,22.41205 64.84375,32.78125 44.68162,24.98592 80.09807,48.81563 121.75,81.90625 7.8375,6.22654 14.25,11.88769 14.25,12.59375 0,1.57321 -6.44681,7.80476 -19,18.34375 -51.23589,43.01496 -108.00489,80.3204 -167.8125,110.28125 -15.46115,7.74533 -14.58223,7.38652 -15.53125,6.4375 -0.83011,-0.83008 -0.86079,-256.99835 -0.0312,-260.09375 0.33163,-1.2375 1.02292,-2.25 1.53125,-2.25 z M 610.75,246.53125 c 0.4125,-0.0117 0.7706,29.33125 0.8125,65.21875 0.0419,35.8875 0.21241,70.37552 0.34375,76.65625 0.13134,6.28072 -0.0463,13.03072 -0.375,15 L 610.9375,407 l -4.96875,-6.4375 c -15.54287,-20.13609 -33.63345,-41.54985 -51.71875,-61.25 -4.8125,-5.24221 -8.75,-10.16441 -8.75,-10.9375 0,-0.77308 4.77566,-6.81805 10.625,-13.40625 15.28285,-17.21329 39.27671,-47.42815 50.9375,-64.1875 1.61821,-2.32576 3.275,-4.2383 3.6875,-4.25 z m -125.21875,142 c 1.71596,-0.0428 17.73225,17.36647 33.8125,36.71875 32.329,38.90733 60.86816,81.63978 83.0625,124.40625 l 9.1875,17.65625 -0.34375,79.34375 c -0.31871,78.92414 -0.33021,79.36831 -2.5625,86.65625 -9.74894,31.82817 -31.70547,53.70177 -62.6875,62.40625 l -5.9375,1.65625 c -3.79954,0.26617 -9.82358,0.46387 -18.84375,0.625 l -141,0.28125 c -146.31949,0.28142 -157.81475,0.1664 -158.40625,-1.375 -0.35077,-0.9141 -0.66685,-55.03852 -0.71875,-120.28125 L 221,558 l 6.5,-3.21875 c 3.575,-1.77885 17.525,-8.61656 31,-15.1875 77.87876,-37.97671 147.83346,-83.94574 211.5,-138.9375 7.7,-6.65085 14.68983,-12.104 15.53125,-12.125 z M 114.5,598.28125 114.25,697.125 c -0.25273,98.02393 -0.26691,98.87166 -2.25,99.09375 -1.1,0.12319 -5.15,-0.80428 -9,-2.0625 C 80.78033,786.89463 62.98213,771.36828 52.40625,750 43.00414,731.00323 43,730.90506 43,670.0625 l 0,-52.9375 17,-4.375 c 9.35,-2.39294 23.975,-6.40434 32.5,-8.9375 8.525,-2.53317 16.95981,-4.80956 18.75,-5.0625 l 3.25,-0.46875 z"
       transform="translate(-38.857153,74.6479)"
       id="path3010"
       inkscape:connector-curvature="0" />
  </g>
</svg>
